# xmcd CD Database Entry
#
# Track frame offsets:
# 150
# 18805
# 46270
#
# Disc length: 862 seconds
#
# Revision: 1
# Processed by: cddbd v1.4PL0 Copyright (c) Steve Scherf et al.
# Submitted via: tcd 2.0b
#
DISCID=16035c03
DTITLE=HUTENMA KAORI - UNMEINOITO
DYEAR=1900
DGENRE=
TTITLE0=UNMEINOITO
TTITLE1=HIKARINOKAWA
TTITLE2=UNMEINOITO(KARAOKE)
EXTD=
EXTT0=
EXTT1=
EXTT2=
PLAYORDER=
